<?xml version="1.0" encoding="utf-8"?>
<!-- Generator: Adobe Illustrator 16.0.0, SVG Export Plug-In . SVG Version: 6.00 Build 0)  -->
<!DOCTYPE svg PUBLIC "-//W3C//DTD SVG 1.1//EN" "http://www.w3.org/Graphics/SVG/1.1/DTD/svg11.dtd">
<svg version="1.1" id="g_x2B__xA0_Image_1_" xmlns="http://www.w3.org/2000/svg" xmlns:xlink="http://www.w3.org/1999/xlink"
	 x="0px" y="0px" width="2594px" height="524px" viewBox="0 0 2594 524" enable-background="new 0 0 2594 524" xml:space="preserve"
	>
<path fill="#475A96" d="M2594,497c0,14.912-11.554,27-25.807,27H25.806C11.554,524,0,511.912,0,497V27C0,12.088,11.554,0,25.806,0
	h2542.387C2582.446,0,2594,12.088,2594,27V497z"/>
<rect x="50.996" y="12" fill="#475A96" width="512" height="500"/>
<path id="White_2_" fill="#FFFFFF" d="M340.624,106.396H93.858c-8.457,0-15.31,7.142-15.31,15.953v257.145
	c0,8.81,6.853,15.953,15.31,15.953h132.85V283.512H190.56v-43.624h36.148v-32.17c0-37.335,21.882-57.664,53.843-57.664
	c15.31,0,28.467,1.188,32.302,1.719v39.017l-22.167,0.01c-17.382,0-20.747,8.607-20.747,21.237v27.852h41.454l-5.396,43.624h-36.057
	v111.936h70.686c8.453,0,15.309-7.144,15.309-15.953V122.35C355.933,113.537,349.078,106.396,340.624,106.396z"/>
<rect x="399.444" y="180" fill="none" width="2140" height="168"/>
<text transform="matrix(1 0 0 1 412.8584 335.3027)" fill="#FFFFFF" font-family="'Helvetica'" font-size="216">Sign in with Facebook</text>
</svg>
