<?xml version="1.0" encoding="utf-8"?>
<!-- Generator: Adobe Illustrator 16.0.0, SVG Export Plug-In . SVG Version: 6.00 Build 0)  -->
<!DOCTYPE svg PUBLIC "-//W3C//DTD SVG 1.1//EN" "http://www.w3.org/Graphics/SVG/1.1/DTD/svg11.dtd">
<svg version="1.1" id="Layer_1" xmlns="http://www.w3.org/2000/svg" xmlns:xlink="http://www.w3.org/1999/xlink" x="0px" y="0px"
	 width="183.001px" height="40px" viewBox="0 0 183.001 40" enable-background="new 0 0 183.001 40" xml:space="preserve">
<g>
	<g>
		<defs>
			<rect id="SVGID_1_" x="-4" y="-4" width="193" height="48"/>
		</defs>
		<defs>
			<path id="SVGID_2_" d="M1.999,0C0.895,0,0,0.892,0,1.997v36.006C0,39.105,0.887,40,1.999,40h181.002
				c1.104,0,1.999-0.892,1.999-1.997V1.997C185,0.894,184.113,0,183.001,0H1.999L1.999,0z M1.999,0"/>
		</defs>
		<defs>
			<path id="SVGID_3_" d="M-4-4h193v48H-4V-4z M-4-4"/>
		</defs>
		<defs>
			<rect id="SVGID_4_" x="-4" y="-748" width="612" height="792"/>
		</defs>
		<clipPath id="SVGID_5_">
			<use xlink:href="#SVGID_1_"  overflow="visible"/>
		</clipPath>
		<clipPath id="SVGID_6_" clip-path="url(#SVGID_5_)">
			<use xlink:href="#SVGID_2_"  overflow="visible"/>
		</clipPath>
		<clipPath id="SVGID_7_" clip-path="url(#SVGID_6_)">
			<use xlink:href="#SVGID_3_"  overflow="visible"/>
		</clipPath>
		<clipPath id="SVGID_8_" clip-path="url(#SVGID_7_)">
			<use xlink:href="#SVGID_4_"  overflow="visible"/>
		</clipPath>
		<rect x="-5" y="-5" clip-path="url(#SVGID_8_)" fill="#C53827" width="195" height="50"/>
	</g>
	<g>
		<defs>
			<rect id="SVGID_9_" x="-4" y="-4" width="193" height="48"/>
		</defs>
		<defs>
			<path id="SVGID_10_" d="M16,19v2.4h3.97c-0.16,1.029-1.2,3.02-3.97,3.02c-2.39,0-4.34-1.979-4.34-4.42
				c0-2.44,1.95-4.42,4.34-4.42c1.36,0,2.27,0.58,2.79,1.08l1.9-1.83C19.47,13.69,17.89,13,16,13c-3.87,0-7,3.13-7,7s3.13,7,7,7
				c4.04,0,6.72-2.84,6.72-6.84c0-0.46-0.05-0.81-0.11-1.16H16L16,19L16,19z M16,19"/>
		</defs>
		<defs>
			<path id="SVGID_11_" d="M-4-4h193v48H-4V-4z M-4-4"/>
		</defs>
		<defs>
			<rect id="SVGID_12_" x="-4" y="-748" width="612" height="792"/>
		</defs>
		<clipPath id="SVGID_13_">
			<use xlink:href="#SVGID_9_"  overflow="visible"/>
		</clipPath>
		<clipPath id="SVGID_14_" clip-path="url(#SVGID_13_)">
			<use xlink:href="#SVGID_10_"  overflow="visible"/>
		</clipPath>
		<clipPath id="SVGID_15_" clip-path="url(#SVGID_14_)">
			<use xlink:href="#SVGID_11_"  overflow="visible"/>
		</clipPath>
		<clipPath id="SVGID_16_" clip-path="url(#SVGID_15_)">
			<use xlink:href="#SVGID_12_"  overflow="visible"/>
		</clipPath>
		<rect x="4" y="8" clip-path="url(#SVGID_16_)" fill="#FFFFFF" width="23.72" height="24"/>
	</g>
	<g>
		<defs>
			<rect id="SVGID_17_" x="-4" y="-4" width="193" height="48"/>
		</defs>
		<defs>
			<polyline id="SVGID_18_" points="31,19 29,19 29,17 27,17 27,19 25,19 25,21 27,21 27,23 29,23 29,21 31,21 			"/>
		</defs>
		<clipPath id="SVGID_19_">
			<use xlink:href="#SVGID_17_"  overflow="visible"/>
		</clipPath>
		<clipPath id="SVGID_20_" clip-path="url(#SVGID_19_)">
			<use xlink:href="#SVGID_18_"  overflow="visible"/>
		</clipPath>
		<rect x="20" y="12" clip-path="url(#SVGID_20_)" fill="#FFFFFF" width="16" height="16"/>
	</g>
	<path fill="#FFFFFF" d="M55.759,23.403c-0.303,0.244-0.755,0.366-1.357,0.366c-0.305,0-0.59-0.033-0.854-0.1
		c-0.264-0.065-0.493-0.171-0.687-0.314s-0.346-0.328-0.458-0.554s-0.167-0.495-0.167-0.81h-1.729c0,0.528,0.113,0.989,0.338,1.381
		s0.523,0.719,0.892,0.98c0.369,0.263,0.786,0.458,1.251,0.588s0.937,0.195,1.415,0.195c0.538,0,1.025-0.062,1.463-0.188
		c0.438-0.125,0.81-0.305,1.118-0.54c0.308-0.234,0.544-0.52,0.711-0.854s0.25-0.712,0.25-1.131c0-0.396-0.066-0.753-0.198-1.07
		c-0.132-0.316-0.334-0.602-0.605-0.854s-0.612-0.479-1.022-0.68c-0.41-0.201-0.896-0.383-1.456-0.547
		c-0.715-0.209-1.248-0.438-1.596-0.684s-0.523-0.554-0.523-0.923c0-0.196,0.035-0.378,0.106-0.547s0.18-0.314,0.328-0.438
		s0.334-0.219,0.557-0.287s0.488-0.103,0.793-0.103c0.324,0,0.604,0.041,0.841,0.123s0.433,0.197,0.588,0.345
		s0.27,0.324,0.345,0.526s0.113,0.425,0.113,0.667h1.723c0-0.415-0.082-0.806-0.246-1.172s-0.4-0.689-0.708-0.967
		s-0.685-0.498-1.131-0.66s-0.95-0.243-1.511-0.243c-0.524,0-1.002,0.068-1.436,0.205s-0.804,0.328-1.114,0.574
		s-0.55,0.538-0.721,0.875s-0.256,0.707-0.256,1.107c0,0.406,0.082,0.766,0.246,1.08s0.391,0.592,0.68,0.834
		s0.635,0.453,1.036,0.636s0.838,0.344,1.312,0.485c0.433,0.132,0.787,0.259,1.063,0.379c0.276,0.121,0.492,0.248,0.649,0.38
		s0.266,0.276,0.325,0.434s0.089,0.337,0.089,0.537C56.214,22.838,56.062,23.16,55.759,23.403L55.759,23.403z M61.292,17.604H59.63
		V25h1.661V17.604L61.292,17.604z M59.771,16.308c0.162,0.167,0.393,0.25,0.694,0.25s0.533-0.083,0.697-0.25
		s0.246-0.375,0.246-0.625c0-0.255-0.082-0.467-0.246-0.636s-0.396-0.253-0.697-0.253s-0.532,0.084-0.694,0.253
		c-0.162,0.168-0.243,0.38-0.243,0.636C59.528,15.933,59.608,16.142,59.771,16.308L59.771,16.308z M63.033,21.391
		c0,0.538,0.068,1.035,0.205,1.493s0.333,0.854,0.591,1.187c0.258,0.333,0.567,0.594,0.93,0.782c0.362,0.189,0.77,0.284,1.221,0.284
		c0.415,0,0.779-0.068,1.094-0.205s0.588-0.335,0.82-0.595v0.499c0,0.579-0.16,1.018-0.479,1.315
		c-0.319,0.299-0.754,0.448-1.306,0.448c-0.342,0-0.674-0.07-0.995-0.212s-0.618-0.374-0.892-0.697l-0.786,0.998
		c0.164,0.224,0.362,0.412,0.595,0.567s0.476,0.281,0.731,0.379c0.255,0.099,0.508,0.169,0.759,0.212
		c0.25,0.044,0.479,0.065,0.684,0.065c0.492,0,0.944-0.069,1.356-0.209c0.413-0.139,0.766-0.34,1.06-0.604s0.523-0.59,0.688-0.978
		s0.246-0.829,0.246-1.326v-7.191h-1.497l-0.075,0.745c-0.232-0.283-0.511-0.5-0.834-0.653c-0.324-0.153-0.709-0.229-1.155-0.229
		c-0.456,0-0.866,0.091-1.23,0.273c-0.365,0.182-0.676,0.44-0.934,0.772c-0.257,0.333-0.454,0.731-0.591,1.196
		s-0.205,0.978-0.205,1.538V21.391L63.033,21.391z M64.688,21.247c0-0.333,0.034-0.646,0.103-0.94s0.172-0.55,0.311-0.769
		c0.139-0.219,0.318-0.392,0.537-0.52s0.479-0.191,0.779-0.191c0.36,0,0.659,0.075,0.898,0.226s0.432,0.355,0.578,0.615v3.254
		c-0.146,0.26-0.337,0.468-0.574,0.625c-0.237,0.157-0.542,0.236-0.916,0.236c-0.301,0-0.559-0.062-0.772-0.188
		c-0.214-0.125-0.392-0.297-0.533-0.516c-0.142-0.219-0.245-0.473-0.312-0.763c-0.066-0.289-0.099-0.598-0.099-0.926V21.247
		L64.688,21.247z M71.46,17.604V25h1.661v-5.264c0.15-0.278,0.352-0.499,0.605-0.663s0.55-0.246,0.892-0.246
		c0.209,0,0.396,0.024,0.557,0.072s0.297,0.126,0.407,0.236s0.192,0.252,0.25,0.427s0.085,0.391,0.085,0.646V25h1.661v-4.778
		c0-0.501-0.056-0.927-0.167-1.278s-0.27-0.636-0.475-0.854s-0.452-0.377-0.742-0.475s-0.612-0.147-0.967-0.147
		c-0.447,0-0.852,0.086-1.217,0.26s-0.677,0.417-0.937,0.731l-0.048-0.854H71.46L71.46,17.604z M84.972,17.604h-1.661V25h1.661
		V17.604L84.972,17.604z M83.451,16.308c0.162,0.167,0.393,0.25,0.694,0.25s0.533-0.083,0.697-0.25s0.246-0.375,0.246-0.625
		c0-0.255-0.082-0.467-0.246-0.636s-0.396-0.253-0.697-0.253s-0.532,0.084-0.694,0.253c-0.162,0.168-0.243,0.38-0.243,0.636
		C83.208,15.933,83.289,16.142,83.451,16.308L83.451,16.308z M86.979,17.604V25h1.661v-5.264c0.15-0.278,0.353-0.499,0.605-0.663
		s0.55-0.246,0.892-0.246c0.21,0,0.396,0.024,0.558,0.072c0.162,0.048,0.297,0.126,0.406,0.236s0.193,0.252,0.25,0.427
		c0.057,0.175,0.085,0.391,0.085,0.646V25h1.661v-4.778c0-0.501-0.056-0.927-0.167-1.278c-0.112-0.351-0.271-0.636-0.476-0.854
		s-0.452-0.377-0.741-0.475c-0.29-0.098-0.612-0.147-0.968-0.147c-0.446,0-0.852,0.086-1.217,0.26
		c-0.364,0.173-0.677,0.417-0.937,0.731l-0.048-0.854H86.979L86.979,17.604z M103.684,17.604h-1.251l-1.518,5.052l-1.196-5.052
		h-1.62L100.122,25h1.367l1.559-5.079L104.634,25h1.367l2.017-7.396h-1.62l-1.176,5.106L103.684,17.604L103.684,17.604z
		 M111.119,17.604h-1.661V25h1.661V17.604L111.119,17.604z M109.599,16.308c0.161,0.167,0.393,0.25,0.693,0.25
		s0.533-0.083,0.697-0.25s0.246-0.375,0.246-0.625c0-0.255-0.082-0.467-0.246-0.636s-0.396-0.253-0.697-0.253
		s-0.532,0.084-0.693,0.253c-0.162,0.168-0.243,0.38-0.243,0.636C109.355,15.933,109.437,16.142,109.599,16.308L109.599,16.308z
		 M113.572,15.806v1.798h-1.217v1.23h1.217v4.225c0,0.383,0.048,0.706,0.144,0.971s0.229,0.479,0.399,0.643s0.374,0.282,0.608,0.355
		c0.235,0.073,0.489,0.109,0.763,0.109c0.246,0,0.457-0.018,0.632-0.052c0.176-0.034,0.329-0.069,0.462-0.105v-1.285
		c-0.06,0.014-0.143,0.028-0.25,0.044c-0.106,0.017-0.218,0.024-0.331,0.024c-0.114,0-0.218-0.011-0.312-0.031
		c-0.093-0.021-0.174-0.059-0.242-0.116c-0.068-0.057-0.121-0.138-0.157-0.242c-0.037-0.104-0.055-0.241-0.055-0.41v-4.129h1.306
		v-1.23h-1.306v-1.798H113.572L113.572,15.806z M119.668,14.5h-1.661V25h1.661v-5.284c0.15-0.273,0.35-0.49,0.599-0.649
		c0.248-0.16,0.545-0.239,0.892-0.239c0.429,0,0.753,0.106,0.975,0.318c0.221,0.212,0.331,0.573,0.331,1.083V25h1.661v-4.758
		c0-0.501-0.057-0.929-0.171-1.282s-0.275-0.64-0.485-0.861s-0.463-0.382-0.759-0.482s-0.624-0.15-0.984-0.15
		c-0.424,0-0.809,0.083-1.155,0.25s-0.647,0.397-0.902,0.694V14.5L119.668,14.5z M137.527,19.894h-3.773v1.312h2.051v1.948
		c-0.06,0.063-0.136,0.131-0.229,0.201c-0.093,0.071-0.213,0.136-0.358,0.195c-0.146,0.06-0.325,0.108-0.537,0.146
		c-0.212,0.039-0.466,0.059-0.762,0.059c-0.401,0-0.76-0.075-1.077-0.226c-0.316-0.15-0.585-0.369-0.807-0.656
		c-0.221-0.287-0.391-0.642-0.509-1.063c-0.119-0.421-0.178-0.905-0.178-1.452v-0.67c0-0.538,0.049-1.018,0.146-1.439
		c0.099-0.421,0.246-0.777,0.444-1.066s0.447-0.509,0.745-0.66c0.299-0.15,0.65-0.226,1.057-0.226c0.337,0,0.628,0.045,0.871,0.137
		c0.244,0.091,0.449,0.216,0.615,0.376c0.167,0.16,0.298,0.349,0.394,0.567s0.164,0.458,0.205,0.718h1.695
		c-0.06-0.465-0.178-0.892-0.355-1.282s-0.422-0.726-0.731-1.008c-0.311-0.283-0.69-0.502-1.142-0.66s-0.98-0.236-1.586-0.236
		c-0.643,0-1.217,0.107-1.723,0.321s-0.935,0.526-1.285,0.937c-0.352,0.41-0.62,0.913-0.807,1.507
		c-0.188,0.595-0.28,1.271-0.28,2.027v0.656c0,0.761,0.104,1.438,0.311,2.03c0.208,0.593,0.498,1.092,0.872,1.497
		c0.373,0.405,0.821,0.716,1.343,0.93c0.522,0.214,1.095,0.321,1.72,0.321c0.556,0,1.04-0.049,1.452-0.147
		c0.413-0.098,0.766-0.219,1.06-0.362s0.534-0.298,0.722-0.465c0.187-0.166,0.332-0.317,0.438-0.454V19.894L137.527,19.894z
		 M139.18,21.377c0,0.538,0.079,1.037,0.236,1.497s0.383,0.857,0.677,1.192s0.653,0.598,1.08,0.786
		c0.426,0.189,0.91,0.284,1.452,0.284c0.538,0,1.02-0.095,1.446-0.284c0.426-0.188,0.786-0.451,1.08-0.786s0.519-0.732,0.673-1.192
		c0.155-0.46,0.232-0.959,0.232-1.497v-0.144c0-0.538-0.077-1.036-0.232-1.494c-0.154-0.458-0.379-0.855-0.673-1.193
		s-0.655-0.602-1.084-0.793c-0.428-0.191-0.913-0.287-1.456-0.287c-0.537,0-1.019,0.096-1.442,0.287s-0.782,0.456-1.076,0.793
		s-0.52,0.735-0.677,1.193c-0.157,0.458-0.236,0.956-0.236,1.494V21.377L139.18,21.377z M140.841,21.233
		c0-0.328,0.034-0.64,0.103-0.934s0.176-0.551,0.321-0.772c0.146-0.221,0.329-0.397,0.551-0.53c0.221-0.132,0.486-0.198,0.796-0.198
		c0.311,0,0.578,0.066,0.804,0.198s0.411,0.309,0.557,0.53c0.146,0.221,0.254,0.478,0.325,0.772c0.07,0.294,0.105,0.605,0.105,0.934
		v0.144c0,0.333-0.035,0.647-0.105,0.943c-0.071,0.296-0.178,0.555-0.321,0.775c-0.144,0.222-0.328,0.396-0.554,0.523
		s-0.491,0.191-0.797,0.191c-0.31,0-0.577-0.063-0.803-0.191s-0.411-0.302-0.558-0.523c-0.146-0.221-0.253-0.479-0.321-0.775
		s-0.103-0.61-0.103-0.943V21.233L140.841,21.233z M147.375,21.377c0,0.538,0.078,1.037,0.235,1.497s0.383,0.857,0.677,1.192
		s0.654,0.598,1.08,0.786c0.426,0.189,0.91,0.284,1.453,0.284c0.537,0,1.02-0.095,1.445-0.284c0.426-0.188,0.786-0.451,1.08-0.786
		s0.519-0.732,0.674-1.192c0.154-0.46,0.232-0.959,0.232-1.497v-0.144c0-0.538-0.078-1.036-0.232-1.494
		c-0.155-0.458-0.38-0.855-0.674-1.193s-0.655-0.602-1.083-0.793c-0.429-0.191-0.914-0.287-1.456-0.287
		c-0.538,0-1.019,0.096-1.442,0.287s-0.783,0.456-1.077,0.793s-0.52,0.735-0.677,1.193c-0.157,0.458-0.235,0.956-0.235,1.494V21.377
		L147.375,21.377z M149.036,21.233c0-0.328,0.034-0.64,0.103-0.934s0.175-0.551,0.321-0.772c0.146-0.221,0.329-0.397,0.55-0.53
		s0.486-0.198,0.797-0.198c0.31,0,0.577,0.066,0.803,0.198s0.411,0.309,0.558,0.53c0.146,0.221,0.254,0.478,0.324,0.772
		s0.106,0.605,0.106,0.934v0.144c0,0.333-0.036,0.647-0.106,0.943s-0.178,0.555-0.321,0.775c-0.144,0.222-0.328,0.396-0.554,0.523
		s-0.491,0.191-0.796,0.191c-0.311,0-0.578-0.063-0.804-0.191s-0.411-0.302-0.557-0.523c-0.146-0.221-0.253-0.479-0.321-0.775
		s-0.103-0.61-0.103-0.943V21.233L149.036,21.233z M155.59,21.391c0,0.538,0.068,1.035,0.205,1.493s0.334,0.854,0.592,1.187
		c0.257,0.333,0.566,0.594,0.93,0.782c0.361,0.189,0.769,0.284,1.22,0.284c0.415,0,0.779-0.068,1.094-0.205s0.588-0.335,0.82-0.595
		v0.499c0,0.579-0.159,1.018-0.479,1.315c-0.319,0.299-0.754,0.448-1.306,0.448c-0.342,0-0.674-0.07-0.994-0.212
		c-0.322-0.142-0.619-0.374-0.893-0.697l-0.786,0.998c0.164,0.224,0.362,0.412,0.595,0.567s0.477,0.281,0.731,0.379
		c0.255,0.099,0.508,0.169,0.759,0.212c0.251,0.044,0.479,0.065,0.684,0.065c0.492,0,0.944-0.069,1.357-0.209
		c0.412-0.139,0.766-0.34,1.059-0.604c0.295-0.265,0.523-0.59,0.688-0.978s0.246-0.829,0.246-1.326v-7.191h-1.497l-0.075,0.745
		c-0.232-0.283-0.511-0.5-0.834-0.653s-0.709-0.229-1.155-0.229c-0.456,0-0.866,0.091-1.23,0.273s-0.676,0.44-0.933,0.772
		c-0.258,0.333-0.455,0.731-0.592,1.196s-0.205,0.978-0.205,1.538V21.391L155.59,21.391z M157.244,21.247
		c0-0.333,0.034-0.646,0.103-0.94s0.172-0.55,0.312-0.769c0.139-0.219,0.317-0.392,0.536-0.52s0.479-0.191,0.779-0.191
		c0.36,0,0.659,0.075,0.899,0.226c0.238,0.15,0.432,0.355,0.577,0.615v3.254c-0.146,0.26-0.337,0.468-0.574,0.625
		s-0.542,0.236-0.916,0.236c-0.301,0-0.559-0.062-0.772-0.188c-0.214-0.125-0.392-0.297-0.533-0.516s-0.245-0.473-0.311-0.763
		c-0.066-0.289-0.1-0.598-0.1-0.926V21.247L157.244,21.247z M165.808,14.5h-1.661V25h1.661V14.5L165.808,14.5z M172.096,25.017
		c0.296-0.079,0.562-0.185,0.796-0.314c0.235-0.13,0.44-0.277,0.615-0.444c0.176-0.166,0.322-0.338,0.441-0.516l-0.896-0.854
		c-0.224,0.287-0.486,0.513-0.79,0.677c-0.303,0.164-0.659,0.246-1.069,0.246c-0.292,0-0.553-0.05-0.783-0.15
		c-0.229-0.101-0.43-0.238-0.598-0.414c-0.169-0.175-0.302-0.384-0.4-0.625c-0.098-0.241-0.158-0.506-0.181-0.793h4.833v-0.711
		c0-0.533-0.064-1.023-0.191-1.47c-0.128-0.447-0.321-0.832-0.581-1.155s-0.588-0.575-0.984-0.755s-0.864-0.27-1.401-0.27
		c-0.47,0-0.908,0.09-1.316,0.27c-0.407,0.18-0.762,0.435-1.062,0.766s-0.538,0.731-0.711,1.203c-0.174,0.471-0.26,1-0.26,1.583
		v0.273c0,0.506,0.082,0.978,0.246,1.415s0.398,0.815,0.704,1.135c0.305,0.319,0.677,0.569,1.114,0.752s0.93,0.273,1.477,0.273
		C171.467,25.137,171.799,25.097,172.096,25.017L172.096,25.017z M171.593,18.94c0.189,0.093,0.343,0.219,0.462,0.376
		c0.118,0.157,0.206,0.337,0.263,0.54c0.058,0.203,0.093,0.414,0.106,0.632v0.123h-3.165c0.077-0.569,0.256-1.014,0.536-1.333
		s0.648-0.479,1.104-0.479C171.173,18.8,171.404,18.847,171.593,18.94L171.593,18.94z"/>
</g>
</svg>
