<?xml version="1.0" encoding="utf-8"?>
<!-- Generator: Adobe Illustrator 16.0.0, SVG Export Plug-In . SVG Version: 6.00 Build 0)  -->
<!DOCTYPE svg PUBLIC "-//W3C//DTD SVG 1.1//EN" "http://www.w3.org/Graphics/SVG/1.1/DTD/svg11.dtd">
<svg version="1.1" id="g_x2B__xA0_Image_1_" xmlns="http://www.w3.org/2000/svg" xmlns:xlink="http://www.w3.org/1999/xlink"
	 x="0px" y="0px" width="1459.5px" height="524px" viewBox="4.972 0 1459.5 524" enable-background="new 4.972 0 1459.5 524"
	 xml:space="preserve">
<path fill="#475A96" d="M1464.473,496c0,14.912-6.5,27-14.52,27H19.492c-8.019,0-14.52-12.088-14.52-27V26
	c0-14.912,6.501-27,14.52-27h1430.461c8.02,0,14.52,12.088,14.52,27V496z"/>
<path fill="#475A96" d="M1464.473,497c0,14.912-6.5,27-14.52,27H19.492c-8.019,0-14.52-12.088-14.52-27V27
	c0-14.912,6.501-27,14.52-27h1430.461c8.02,0,14.52,12.088,14.52,27V497z"/>
<path fill="#475A96" d="M1464.473,498c0,14.912-6.5,27-14.52,27H19.492c-8.019,0-14.52-12.088-14.52-27V28
	c0-14.912,6.501-27,14.52-27h1430.461c8.02,0,14.52,12.088,14.52,27V498z"/>
<path fill="#475A96" d="M1464.473,495.838c0,14.817-6.5,26.828-14.52,26.828H19.492c-8.019,0-14.52-12.011-14.52-26.828V28.828
	C4.972,14.011,11.473,2,19.492,2h1430.461c8.02,0,14.52,12.011,14.52,26.828V495.838z"/>
<path fill="#475A96" d="M1464.444,495.89c0,14.788-6.5,26.776-14.52,26.776H19.492c-8.019,0-14.52-11.988-14.52-26.776V29.777
	C4.972,14.988,11.473,3,19.492,3h1430.433c8.02,0,14.52,11.988,14.52,26.777V495.89z"/>
<path fill="#475A96" d="M1466.14,497.048c0,14.793-6.508,26.785-14.536,26.785H19.509c-8.028,0-14.537-11.992-14.537-26.785V30.785
	C4.972,15.992,11.48,4,19.509,4h1432.095c8.028,0,14.536,11.992,14.536,26.785V497.048z"/>
<path fill="#475A96" d="M1464.473,497c0,14.912-6.5,27-14.52,27H19.492c-8.019,0-14.52-12.088-14.52-27V27
	c0-14.912,6.501-27,14.52-27h1430.461c8.02,0,14.52,12.088,14.52,27V497z"/>
<path fill="#475A96" d="M1464.473,496c0,14.912-6.5,27-14.52,27H19.492c-8.019,0-14.52-12.088-14.52-27V26
	c0-14.912,6.501-27,14.52-27h1430.461c8.02,0,14.52,12.088,14.52,27V496z"/>
<rect x="79.26" y="39.602" fill="#475A96" width="483.736" height="472.398"/>
<path id="White_2_" fill="#FFFFFF" d="M342.246,131.787H121.625c-7.561,0-13.688,6.386-13.688,14.263v229.9
	c0,7.877,6.127,14.262,13.688,14.262H240.4V290.138h-32.318v-39.002H240.4v-28.762c0-33.379,19.563-51.554,48.138-51.554
	c13.688,0,25.45,1.062,28.879,1.537v34.883l-19.818,0.009c-15.54,0-18.549,7.695-18.549,18.987v24.901h37.062l-4.824,39.001h-32.237
	v100.076h63.197c7.558,0,13.687-6.387,13.687-14.262V146.051C355.933,138.171,349.805,131.787,342.246,131.787z"/>
<rect x="399.444" y="180" fill="none" width="2140" height="168"/>
<text transform="matrix(1 0 0 1 455.9395 343)" fill="#FFFFFF" font-family="'Helvetica'" font-size="206">Facebook</text>
</svg>
