<?xml version="1.0" encoding="utf-8"?>
<!-- Generator: Adobe Illustrator 16.0.0, SVG Export Plug-In . SVG Version: 6.00 Build 0)  -->
<!DOCTYPE svg PUBLIC "-//W3C//DTD SVG 1.1//EN" "http://www.w3.org/Graphics/SVG/1.1/DTD/svg11.dtd">
<svg version="1.1" id="g_x2B__xA0_Image_1_" xmlns="http://www.w3.org/2000/svg" xmlns:xlink="http://www.w3.org/1999/xlink"
	 x="0px" y="0px" width="1459.5px" height="524px" viewBox="0 0 1459.5 524" enable-background="new 0 0 1459.5 524"
	 xml:space="preserve">
<path fill="#DC4A3D" d="M1460.5,497c0,14.912-6.501,27-14.52,27H15.52C7.501,524,1,511.912,1,497V27C1,12.088,7.501,0,15.52,0
	H1445.98c8.019,0,14.52,12.088,14.52,27V497z"/>
<rect x="510" y="178" fill="none" width="2016" height="168"/>
<g enable-background="new    ">
	<path fill="#FFFFFF" d="M791.019,328.277c-9.288,3.456-27.432,8.208-46.873,8.208c-24.625,0-43.201-6.264-57.025-19.44
		c-12.96-12.312-20.521-31.536-20.304-53.568c0-46.009,32.832-75.602,81.001-75.602c17.928,0,31.969,3.673,38.665,6.912
		l-5.832,21.385c-7.992-3.456-17.712-6.265-33.048-6.265c-31.104,0-52.921,18.36-52.921,52.273
		c0,33.049,20.304,52.705,50.545,52.705c9.504,0,16.632-1.297,20.088-3.024v-36.289H739.61V254.62h51.409V328.277z"/>
	<path fill="#FFFFFF" d="M918.455,281.405c0,38.664-27.216,55.944-54,55.944c-29.809,0-52.705-20.521-52.705-54.217
		c0-34.561,22.681-55.729,54.433-55.729C897.502,227.404,918.455,249.437,918.455,281.405z M839.182,282.484
		c0,20.305,9.936,35.641,26.136,35.641c15.12,0,25.705-14.904,25.705-36.072c0-16.416-7.344-35.208-25.488-35.208
		C846.742,246.845,839.182,264.988,839.182,282.484z"/>
	<path fill="#FFFFFF" d="M1040.277,281.405c0,38.664-27.216,55.944-54,55.944c-29.809,0-52.705-20.521-52.705-54.217
		c0-34.561,22.68-55.729,54.433-55.729C1019.325,227.404,1040.277,249.437,1040.277,281.405z M961.004,282.484
		c0,20.305,9.936,35.641,26.136,35.641c15.12,0,25.705-14.904,25.705-36.072c0-16.416-7.344-35.208-25.489-35.208
		C968.564,246.845,961.004,264.988,961.004,282.484z"/>
	<path fill="#FFFFFF" d="M1158.213,229.78c-0.432,7.128-0.864,15.768-0.864,30.24v59.617c0,22.032-4.536,37.801-15.552,47.736
		c-11.016,9.721-26.136,12.744-40.608,12.744c-13.393,0-27.648-2.808-36.721-8.424l5.832-20.089
		c6.696,3.889,17.928,7.992,30.672,7.992c17.28,0,30.241-9.071,30.241-31.752v-9.072h-0.432
		c-6.048,9.288-16.848,15.552-30.672,15.552c-26.137,0-44.713-21.6-44.713-51.408c0-34.561,22.464-55.513,47.737-55.513
		c15.984,0,25.488,7.775,30.457,16.416h0.432l1.08-14.04H1158.213z M1130.78,271.9c0-2.376-0.216-4.968-0.864-7.128
		c-2.808-9.72-10.368-17.064-21.6-17.064c-14.904,0-25.92,12.961-25.92,34.345c0,17.929,9.072,32.4,25.705,32.4
		c9.936,0,18.576-6.479,21.6-15.984c0.648-2.808,1.08-6.479,1.08-9.504V271.9z"/>
	<path fill="#FFFFFF" d="M1185.859,181.611h26.784v153.362h-26.784V181.611z"/>
	<path fill="#FFFFFF" d="M1260.161,289.829c0.648,19.008,15.552,27.216,32.401,27.216c12.312,0,21.168-1.728,29.16-4.752
		l3.888,18.36c-9.071,3.672-21.6,6.48-36.72,6.48c-34.129,0-54.217-20.952-54.217-53.137c0-29.161,17.712-56.593,51.409-56.593
		c34.129,0,45.361,28.08,45.361,51.192c0,4.968-0.433,8.856-0.864,11.232H1260.161z M1306.386,271.253
		c0.216-9.721-4.104-25.705-21.816-25.705c-16.417,0-23.329,14.904-24.409,25.705H1306.386z"/>
</g>
<g id="G_x2B_">
	<g>
		<path fill="#FFFFFF" d="M239.117,235.684v50.978c0,0,49.453-0.065,69.589-0.065c-10.904,33.048-27.86,51.044-69.589,51.044
			c-42.232,0-75.192-34.235-75.192-76.468c0-42.23,32.96-76.466,75.192-76.466c22.328,0,36.749,7.848,49.976,18.787
			c10.589-10.589,9.704-12.097,36.642-37.537c-22.867-20.814-53.26-33.502-86.617-33.502c-71.09,0-128.719,57.629-128.719,128.718
			c0,71.088,57.629,128.721,128.719,128.721c106.259,0,132.23-92.525,123.621-154.209
			C337.582,235.684,239.117,235.684,239.117,235.684z M471.065,238.232v-44.605h-31.861v44.605h-45.88v31.861h45.88v45.88h31.861
			v-45.88h44.605v-31.861H471.065z"/>
	</g>
</g>
</svg>
